# xmcd
# 
# Track frame offsets:
#     150
#     15341
#     25920
#     38564
#     55572
#     67204
#     77070
#     89690
#     109955
#     121425
#     138618
#     151036
#     166899
#     184012
#     196618
#     211699
#     224237
# 
# Disc length: 3160
# 
# Revision: 0
# Processed by: cddbd v1.5.2PL0 Copyright (c) Steve Scherf et al.
# Submitted via: fre:ac v1.0.17
# 
DISCID=e50c5611
DTITLE=Albert King - King of the Blues Guitar
DYEAR=1969
DGENRE=Blues
TTITLE0=Laundromat Blues
TTITLE1=Overall Junction
TTITLE2=Oh, Pretty Woman
TTITLE3=Funk-Shun
TTITLE4=Crosscut Saw
TTITLE5=Down Don't Bother Me
TTITLE6=Born Under A Bad Sign
TTITLE7=Personal Manager
TTITLE8=Kansas City
TTITLE9=The Very Thought Of You
TTITLE10=The Hunter
TTITLE11=I Almost Lost My Mind
TTITLE12=As The Years Go Passing By
TTITLE13=Cold Feet
TTITLE14=You Sure Drive A Hard Bargain
TTITLE15=I Love Lucy
TTITLE16=You're Gonna Need Me
EXTD=Albert King, vocals and lead guitar\nBooker T. Jones, keybords\nSteve Cropper, guitar\nDuck Dunn, YEAR: 1989
EXTT0=
EXTT1=
EXTT2=
EXTT3=
EXTT4=
EXTT5=
EXTT6=
EXTT7=
EXTT8=
EXTT9=
EXTT10=
EXTT11=
EXTT12=
EXTT13=
EXTT14=
EXTT15=
EXTT16=
PLAYORDER=
